<svg id="Capa_1" enable-background="new 0 0 512 512" height="512" viewBox="0 0 512 512" width="512" xmlns="http://www.w3.org/2000/svg"><g><g><g><path d="m429.911 413.245c-17.874 0-35.639-5.841-50.373-17.294l-16.693-12.976c-7.393-5.747-8.728-16.401-2.981-23.795 5.749-7.393 16.4-8.73 23.796-2.981l16.693 12.976c15.222 11.832 35.961 13.458 52.839 4.141 15.354-8.474 24.893-24.633 24.893-42.171v-26.752c0-9.603-4.489-18.301-12.314-23.865-7.826-5.563-17.516-6.946-26.587-3.791l-42.709 14.854c-8.843 3.077-18.51-1.599-21.586-10.445-3.077-8.845 1.6-18.511 10.445-21.586l42.709-14.855c19.287-6.71 40.738-3.649 57.38 8.183 16.641 11.831 26.577 31.084 26.577 51.504v26.752c0 29.885-16.254 57.422-42.42 71.864-12.423 6.857-26.078 10.235-39.669 10.237z" fill="#F4A25D"/></g></g><path d="m413.91 241.72v58.93c0 90.51-73.37 163.89-163.88 163.89h-42.77c-90.51 0-163.88-73.38-163.88-163.89v-58.93c0-8.29 6.71-15 15-15h340.53c8.28 0 15 6.71 15 15z" fill="#FBC380"/><path d="m254.4 464.27c-3.08.18-6.19.26-9.32.26h-32.87c-.1 0-.2.01-.3.01h-4.65c-90.51 0-163.88-73.38-163.88-163.89v-58.93c0-8.29 6.71-15 15-15h51.55c-8.34.21-15.05 7.05-15.05 15.45v53.53c0 90.12 70.61 163.74 159.52 168.57z" fill="#F4A25D"/><g><path d="m225.088 190.501c-1.494 0-3.004-.433-4.333-1.335-3.53-2.397-4.449-7.202-2.052-10.732 28.208-41.542 15.08-58.464-.12-78.056-15.92-20.52-33.964-43.778.26-90.931 2.506-3.454 7.335-4.223 10.791-1.714 3.454 2.506 4.221 7.337 1.714 10.791-27.41 37.768-15.559 53.042-.555 72.382 15.686 20.218 35.207 45.381.695 96.208-1.496 2.201-3.927 3.387-6.4 3.387z" fill="#a8a29e"/></g><g><g><path d="m143.109 157.371c-1.719 0-3.449-.57-4.884-1.743-3.304-2.7-3.794-7.567-1.094-10.872 18.654-22.827 11.247-30.759.037-42.766-11.391-12.2-26.993-28.91.127-59.957 2.807-3.214 7.689-3.542 10.901-.736 3.214 2.807 3.543 7.688.736 10.901-17.939 20.537-11.363 27.578-.47 39.245 11.745 12.58 27.832 29.808.634 63.091-1.527 1.868-3.748 2.837-5.987 2.837z" fill="#a8a29e"/></g><g><path d="m307.071 157.371c-1.72 0-3.45-.57-4.885-1.743-3.304-2.7-3.794-7.567-1.094-10.872 18.655-22.827 11.248-30.759.038-42.766-11.392-12.201-26.994-28.91.126-59.957 2.808-3.214 7.689-3.542 10.901-.736 3.214 2.807 3.543 7.688.736 10.901-17.938 20.536-11.363 27.578-.469 39.245 11.745 12.579 27.831 29.808.633 63.091-1.526 1.868-3.747 2.837-5.986 2.837z" fill="#a8a29e"/></g></g></g></svg>
